<?xml version="1.0" encoding="utf-8"?>
<!-- Generator: Adobe Illustrator 27.7.0, SVG Export Plug-In . SVG Version: 6.00 Build 0)  -->
<svg version="1.1" xmlns="http://www.w3.org/2000/svg" xmlns:xlink="http://www.w3.org/1999/xlink" x="0px" y="0px"
	 viewBox="0 0 2997.9 678.6" style="enable-background:new 0 0 2997.9 678.6;" xml:space="preserve">
<style type="text/css">
	.st0{fill:#235CF4;}
	.st1{fill:#FFFFFF;stroke:#FFFFFF;stroke-width:2.0944;stroke-miterlimit:10;}
	.st2{fill:#FFFFFF;}
</style>
<g id="Layer_3">
</g>
<g id="Layer_1">
	<g>
		<polygon class="st0" points="371.7,54.9 87.6,547 30.8,645.4 712.6,645.4 655.8,547 599,448.6 542.2,547 428.5,547 542.2,350.2 
			485.4,251.8 314.9,547 201.2,547 428.5,153.3 		"/>
		<path class="st1" d="M1441.4,253.1l-174.7,303.6l-174.6-303.6h84.7l87.7,161.5l2.2,4.1l2.2-4.1l87.7-161.5H1441.4z M1095,337.3
			c7.1,22,10.5,45.1,10.1,68.2v20.2H881v0c1.3,19.9,10.6,38.4,25.7,51.4c15,12.4,33.9,18.9,53.3,18.3c16.2,0.6,32.2-3.4,46.2-11.3
			c12.5-7.6,23.5-17.2,32.8-28.5l52.7,39.8c-15.1,19.7-34.9,35.2-57.6,45.3c-21.1,9-43.8,13.5-66.7,13.5c-21.3,0.1-42.5-3.6-62.5-11
			c-18.9-6.9-36.2-17.5-50.8-31.2c-14.5-13.7-26.1-30.3-34-48.6c-16.7-40.6-16.7-86.1,0-126.7c7.9-18.3,19.5-34.9,34-48.6
			c14.7-13.7,32-24.3,50.8-31.2c20-7.4,41.1-11.1,62.5-11c19.2-0.2,38.3,3.4,56,10.7c16.6,6.9,31.5,17.5,43.5,30.9
			C1079.5,302,1089.1,319,1095,337.3z M1031.6,370.7c-0.4-21.6-7.2-38.6-20.2-51.1c-13-12.4-31.2-18.7-54.5-18.6
			c-22,0-39.5,6.3-52.4,19c-13.4,13.8-21.7,31.7-23.6,50.8H1031.6z M2666.7,315.6h80.8v-62.4h-80.9v-70.3l-73.5,24v46.4h-42.3v62.4
			l42.3,0v134.6c-0.2,15.2,1.2,30.4,4,45.3c2.2,11.9,7.2,23.2,14.7,32.7c7.7,9.2,17.9,16,29.4,19.6c15.6,4.7,31.8,6.9,48.1,6.4
			c10-0.1,19.9-0.8,29.7-2.1c9.8-1.1,19.4-3.6,28.5-7.7v-61.8c-5.5,3.7-11.8,6.1-18.3,7c-7.1,1.4-14.2,2.1-21.5,2.1
			c-16.3,0-27.2-4.3-32.8-12.8c-6-10.6-8.9-22.7-8.3-34.9V315.6z M2483.6,388.7c-12.1-6.4-24.9-11.1-38.3-14.1
			c-13.7-3.1-26.4-6-38.3-8.9c-10.2-2.3-20.1-5.8-29.4-10.4c-7.5-3.6-12-11.3-11.6-19.6c-0.6-10.1,5-19.5,14.1-23.9
			c8.9-4.8,18.8-7.3,28.8-7.3c23.1-0.5,44.8,10.8,57.6,30l49-44.1c-11.5-16.1-27.8-28.2-46.6-34.6c-32.7-11.7-68.1-13.3-101.7-4.6
			c-13.6,3.4-26.4,9.2-38,17.1c-11,7.7-20.1,17.9-26.6,29.7c-7,13.1-10.5,27.7-10.1,42.5c0,18.8,3.9,33.4,11.7,44.1
			c7.6,10.5,17.7,19,29.4,24.8c12.1,6,25,10.3,38.3,12.8c13.7,2.7,26.4,5.5,38.3,8.5c10.3,2.5,20.3,6.5,29.4,11.9
			c12.2,8.5,15.3,25.3,7,37.7c-3.2,4.4-7.2,8-11.9,10.7c-5,2.9-10.3,5-15.9,6.1c-5.4,1.2-11,1.8-16.5,1.9
			c-13.9,0.4-27.5-3.1-39.5-10.1c-11.3-7.1-21.5-15.9-30.3-26l-49,45.9c13.7,16.2,31.4,28.4,51.4,35.5c20.4,6.7,41.7,10,63.1,9.8
			c15.2,0,30.5-1.7,45.3-4.9c14.4-3,28.1-8.4,40.7-15.9c11.9-7.2,22-17.2,29.4-29c7.9-13.4,11.8-28.8,11.3-44.4
			c0-19.1-3.9-34.3-11.6-45.3C2505.4,403.9,2495.3,395,2483.6,388.7z M2249.6,337.3c7.1,22,10.5,45.1,10.1,68.2v20.2h-224.1v0
			c1.3,19.9,10.6,38.4,25.7,51.4c15,12.4,33.9,18.9,53.3,18.3c16.2,0.6,32.2-3.3,46.2-11.3c12.5-7.6,23.6-17.2,32.8-28.5l52.6,39.8
			c-15.1,19.7-34.9,35.2-57.5,45.3c-21.1,9-43.8,13.5-66.8,13.5c-21.3,0.1-42.5-3.6-62.5-11c-18.9-6.9-36.2-17.5-50.8-31.2
			c-14.5-13.7-26.1-30.3-34-48.6c-16.7-40.6-16.7-86.1,0-126.7c7.9-18.3,19.5-34.9,34-48.6c14.7-13.7,32-24.3,50.8-31.2
			c20-7.4,41.1-11.1,62.5-11c19.2-0.2,38.3,3.4,56,10.7c16.6,6.9,31.5,17.5,43.5,30.9C2234.1,302,2243.7,318.9,2249.6,337.3z
			 M2186.2,370.7c-0.4-21.6-7.1-38.6-20.2-51.1c-13.1-12.4-31.2-18.7-54.5-18.6c-22,0-39.5,6.3-52.4,19
			c-13.4,13.8-21.7,31.7-23.6,50.8H2186.2z M1929.4,245.9c-18.3-0.4-36.4,4.5-52.1,14.1c-15.2,9.6-27.4,23.4-34.9,39.8h-1.2v-46.5
			h-73.5v293.7h73.5V389.7c0.3-6.2,1.2-12.3,2.8-18.3c2.1-8.8,5.9-17.1,11-24.5c6.3-8.9,14.4-16.3,23.9-21.7
			c12.6-6.9,27-10.2,41.3-9.5c5.9,0,11.7,0.5,17.5,1.5c5.9,1,11.9,2.3,18.1,4v-71c-4.5-1.2-8.9-2.2-13.2-3.1
			C1938.3,246.3,1933.8,245.9,1929.4,245.9z M1718,337.3c7.1,22,10.5,45.1,10.1,68.2v20.2h-224.2v0c1.4,19.9,10.6,38.4,25.7,51.4
			c15,12.3,33.9,18.9,53.3,18.3c16.1,0.6,32.1-3.4,46.2-11.3c12.5-7.6,23.5-17.2,32.8-28.5l52.7,39.8
			c-15.1,19.7-34.9,35.2-57.6,45.3c-21.1,9-43.8,13.5-66.8,13.4c-21.3,0.1-42.5-3.6-62.4-11c-18.9-6.9-36.2-17.5-50.8-31.2
			c-14.5-13.7-26.1-30.3-34-48.6c-16.8-40.6-16.8-86.1,0-126.7c7.9-18.3,19.5-34.9,34-48.6c14.7-13.7,32-24.3,50.8-31.2
			c20-7.4,41.1-11.1,62.5-11c19.2-0.2,38.3,3.4,56,10.7c16.6,6.9,31.5,17.5,43.5,30.9C1702.4,302,1712,319,1718,337.3z
			 M1654.6,370.7c-0.4-21.6-7.2-38.6-20.2-51.1c-13-12.5-31.2-18.7-54.5-18.6c-22,0-39.5,6.3-52.4,19
			c-13.4,13.8-21.7,31.7-23.6,50.8H1654.6z"/>
	</g>
	<g>
		<path class="st2" d="M2887.1,180.2c40,0,72.4,34.8,72.4,78.3s-32.4,77.6-72.4,77.6c-40,0-72.4-34.1-72.4-77.6
			S2847.1,180.2,2887.1,180.2z M2887.1,324.8c33.7,0,61-30,61-66.2c0-36.6-27.3-66.2-61-66.2c-33.7,0-61,29.7-61,66.2
			C2826.2,294.8,2853.5,324.8,2887.1,324.8z M2858.9,214h28.6c15.2,0,30.2,6.9,30.2,25.9c0,12.8-7.3,21-18.7,23.8l21.9,38.6H2903
			l-19.1-36.9h-10.5v36.9h-14.6V214z M2885.2,252.7c8.3,0,17.8-2.4,17.8-13.1c0-9.7-8.6-12.1-16.2-12.1h-13.3v25.2H2885.2z"/>
	</g>
	<g id="Layer_2">
	</g>
</g>
</svg>
